<?xml version="1.0" encoding="utf-8"?>
<!-- Generator: Adobe Illustrator 15.1.0, SVG Export Plug-In . SVG Version: 6.00 Build 0)  -->
<!DOCTYPE svg PUBLIC "-//W3C//DTD SVG 1.1//EN" "http://www.w3.org/Graphics/SVG/1.1/DTD/svg11.dtd">
<svg version="1.1" xmlns="http://www.w3.org/2000/svg" xmlns:xlink="http://www.w3.org/1999/xlink" x="0px" y="0px" width="950px"
	 height="304px" viewBox="0 0 950 304" enable-background="new 0 0 950 304" xml:space="preserve">
<g id="Layer_3">
</g>
<g id="Layer_1">
	<g id="Layer_2">
	</g>
</g>
<g id="Layer_5">
</g>
<g id="Layer_4">
	<g>
		<g>
			<path fill="#0E0D0D" d="M113.756,258.667c7.969-0.896-1.412-7.604-4.059-8.93c-5.096-2.55-9.269-5.46-12.447-10.282
				c-5.084-7.714-7.59-17.92-9.742-26.789c-1.461-6.021-2.609-9.511,1.218-14.611c3.807-5.074-2.676-9.242,1.353-14.613
				c6.744-8.989,9.565-20.869,16.235-29.765c1.893-2.523,1.227-4.869,3.923-5.141c1.312-0.132,4.668,2.479,5.818,3.247
				c3.321,2.215,7.341,3.269,10.553,5.412c1.643,1.096,4.739,0.295,6.089,1.354c3.889,3.048,2.972,12.488,2.57,17.317
				c-0.576,6.907-6.088,9.038-6.088,15.694c0,8.012,1.696,13.451-0.812,21.646c-1.448,4.734-5.071,10.078-5.683,14.883
				c-0.483,3.793,0.226,3.686,1.353,7.307c1.323,4.25,1.649,8.105,5.683,10.012c2.328,1.1,11.677,1.533,12.988-1.083
				c2.566-5.12-7.261-6.901-8.93-10.011c-3.612-6.731,4.853-24.213,8.118-30.037c1.779-3.174,5.214-5.724,6.495-8.929
				c1.724-4.315-1.765-7.265-1.217-10.554c1.076-6.461,3.782-13.274,5.817-19.482c4.731-14.428,11.316,7.482,14.071,12.988
				c1.086,2.17,1.872,4.556,2.977,6.765c1.306,2.613-1.58,4.87-0.812,8.118c0.722,3.055,4.277,4.75,6.225,7.036
				c2.976,3.491,5.024,7.897,6.629,12.177c3.35,8.931,4.505,24.487,10.688,31.66c0.901,1.045,3.384,0.428,4.329,1.352
				c2.156,2.107-0.579,4.408,3.653,5.817c3.234,1.079,11.417,2.266,14.477,0.407c5.898-3.584-1.471-7.965-5.142-11.637
				c-5.15-5.15-11.12-9.834-15.153-15.963c-5.287-8.035-6.409-17.082-7.442-26.384c-0.497-4.478,4.321-6.681,0.135-12.042
				c-1.34-1.717-5.412-1.479-5.412-3.247c0-5.583-0.171-11.196,0-16.776c0.207-6.742,0.18-17.887,6.629-22.189
				c8.588-5.728,19.518-7.229,27.736-13.394c8.164-6.124,15.646-11.679,20.565-21.512c2.56-5.119,3.911-10.143,5.952-15.424
				c1.501-3.884,1.079-2.57,3.518-4.87c1.42-1.339,3.562-2.275,5.142-3.788c4.166-3.992,4.929-7.889,11.905-6.224
				c2.772,0.662,7.345,5.876,8.93,2.707c1.013-2.022,0.381-3.895-0.135-5.954c-0.769-3.067,2.942-4.073,2.841-7.035
				c-0.174-5.051-8.345-10.382-12.583-11.23c-5.372-1.074-11.228,1.222-16.911,0.136c-4.59-0.877-8.58-3.363-12.988-4.465
				c-4.609-1.152-8.77-1.574-12.719,1.218c-1.798,1.271-2.467,3.579-4.059,4.871c-1.348,1.094-2.523,0.789-4.059,1.894
				c-4.634,3.337-4.998,8.287,2.976,6.765c-3.352,13.908-19.677,51.265-37.883,31.93c-8.497-9.023-16.292-19.025-24.354-28.413
				c-7.082-8.246-11.186-17.559-23.271-15.965c-11.887,1.567-20.005,9.732-29.224,16.506c-7.538,5.538-16.389,6.775-24.354,11.365
				c-8.468,4.879-16.037,13.081-18.941,22.459c-4.2,13.561-1.787,26.628-9.2,39.506c-4.496,7.81-10.874,13.287-16.506,19.754
				c-3.038,3.487-5.074,8.313-4.06,12.987c0.698,3.217,2.977,3.82,2.977,7.576c0,6.566-0.341,13.064-0.042,19.637
				c0.265,5.833,0.713,11.577,1.539,17.359c0.713,4.997,2.553,6.388,4.185,10.088c2.414,5.473,2.02,7.859,7.848,10.012
				c3.303,1.219,8.919,3.665,12.447,3.518c5.084-0.211,5.798-4.393,1.894-8.929c-2.524-2.934-7.195-3.872-10.012-7.035
				c-8.194-9.198-11.73-36.808-4.871-46.544c2.869-4.07,6.488-4.096,6.765-10.281c0.247-5.52-2.021-7.449,2.977-12.447
				c1.687-1.688,9.004-8.748,11.365-8.119c2.725,0.728-0.645,5.898-2.165,7.848c-3.185,4.085-6.473,4.969-4.329,11.094
				c1.368,3.91,5.302,6.457,8.118,9.2c-2.836-6.128,2.42-6.586,4.059-11.095c2.232-6.141-5.94-6.248-3.247-11.635
				c1.63-3.262,3.781-11.165,8.929-8.389c6.266,3.381,1.352,22.49,0,27.871c-2.416,9.613-11.934,14.102-5.682,23.812
				c4.46,6.928,6.568,14.087,9.606,22.189c2.732,7.287,2.502,17.733,6.9,23.812c0.843,1.166,2.178,1.811,2.977,2.977
				c0.578,0.846,1.465,3.294,1.895,3.788c1.835,2.112,2.224,2.679,5.142,3.788C101.675,259.307,108.096,258.667,113.756,258.667"/>
			<g>
				<path d="M212.949,26.889c3.653-1.044,8.039-0.673,11.743-2.424c2.849-1.347-0.501-2.183-2.939-1.78
					c-7.155,1.18-10.958,2.992-17.137,7.245C204.615,29.93,211.058,27.429,212.949,26.889z"/>
				<path d="M195.796,43.888c5.205,1.576,12.927-1.743,16.745-6.889c1.532-2.066,2.539-2.785,2.063-4.689
					c-1.089-4.368-8.143-1.632-10.502-0.618c-0.954,0.41-2.039,1.045-3.134,1.801C196.223,36.772,191.268,42.516,195.796,43.888z"/>
				<path d="M217.478,22.513c3.845-1.146,6.975-1.178,10.012-0.426c0.555,0.137,1.532,0.546,0.744,1.468
					c-2.014,1.722-4.506,2.906-7.139,3.048c-2.621,0.109-7.432,0.586-7.432,0.586s3.084-0.278,4.777,1.504
					c3.627,3.818-0.797,10.752-5.959,14.734c-7.375,5.69-13.583,7.352-19.47,3.381c3.978,8.897,8.961,20.742,9.088,21.046
					c-0.146,0.386-0.494,1.225-1.067,1.995c-1.63,2.19-4.823,6.012-8.065,9.259c-3.242,3.248-5.37,4.11-6.27,4.766
					c-0.524,0.382-0.61,0.521-0.561,0.649c0.036,0.093,0.1,0.204,0.23,0.257c0.226,0.093,0.463,0.125,0.741,0.027
					c0.541-0.191,1.583-0.55,2.979-1.023c2.094-0.709,13.895-4.897,22.464-8.366c8.57-3.469,29.701-11.194,37.069-13.625
					c7.368-2.43,14.755-6.218,16.994-7.849c2.223-1.62,2.956-2.321,3.734-3.329c1.339-1.736,1.834-4.401,1.495-6.753
					c-0.273-1.895-1.165-3.795-2.984-4.99c-2.744-1.802-5.386-2.781-8.712-2.999c-7.634-0.499-11.572,0.273-18.354,2.426
					c-3.563-5.838-7.81-12.761-8.618-13.871c-1.402-1.924-3.3-2.508-3.3-2.508C226.635,20.505,221.183,20.959,217.478,22.513
					L217.478,22.513z"/>
				<path fill="#FFFFFF" d="M205.287,68.479c12.568-3.572,28.648-10.428,37.259-16.921c4.648-3.505,4.169-5.161,4.169-5.161
					s-0.974-1.613-2.323-3.83l0.129-0.094c4.298-2.969,7.838-3.873,12.097-4.367c4.13-0.479,9.178-0.814,12.389,1.438
					c1.785,1.251,2.448,2.849,2.636,4.494c0.347,3.019-0.618,4.776-1.882,6.298c-2.288,2.755-11.397,7.587-19.868,10.609
					c-9.139,3.261-15.576,5.15-20.772,6.977c-5.196,1.828-11.097,2.696-16.924,4.33c-5.827,1.634-11.757,5.143-16.643,7.396
					c-3.355,1.548-6.584,3.562-8.09,4.62c-0.393,0.276-0.706,0.628-1.173,0.373c-0.097-0.053-0.097-0.156-0.075-0.2
					c0.071-0.14,0.401-0.397,0.669-0.558c0.64-0.385,2.672-1.44,5.141-3.633c2.47-2.192,6.978-7.48,7.986-8.706
					c0.952-1.157,1.637-2.114,2.266-3.42C202.512,68.315,203.481,68.991,205.287,68.479z"/>
				<path d="M221.019,65.272c4.287-1.857,7.593-3.397,11.911-5.478c3.002-1.446,16.362-8.634,14.714-12.688
					c0,0-0.505,2.089-2.691,4.255c-2.187,2.166-9.196,6.545-13.741,8.679c-11.034,5.182-20.798,9.853-28.813,9.876
					C206.708,71.025,215.864,67.505,221.019,65.272z"/>
			</g>
		</g>
		<g>
			<path d="M335.484,217.16c-17.709,0-31.494-6.641-41.357-19.922s-14.795-29.688-14.795-49.219c0-19.399,5.24-35.627,15.723-48.681
				c10.481-13.052,24.316-19.58,41.504-19.58c17.317,0,31.006,6.528,41.064,19.58c10.059,13.054,15.088,29.379,15.088,48.974
				c0,20.574-5.225,37.192-15.674,49.854C366.588,210.83,352.736,217.16,335.484,217.16z M335.68,197.824
				c8.658,0,15.982-3.579,21.973-10.742c5.989-7.16,8.984-20.148,8.984-38.965c0-15.298-2.475-27.294-7.422-35.986
				c-4.948-8.691-12.631-13.037-23.047-13.037c-20.573,0-30.859,16.569-30.859,49.707c0,16.082,2.62,28.271,7.861,36.572
				C318.41,193.674,325.914,197.824,335.68,197.824z"/>
			<path d="M505.758,215.109h-23.34l-50.586-85.156c-0.781-1.301-2.051-3.418-3.809-6.347c-0.781-1.302-1.986-3.353-3.613-6.152
				v97.656h-19.336v-133.3h26.562l46.68,78.515c0.391,0.652,3.223,5.438,8.496,14.355V81.809h18.945V215.109z"/>
			<path d="M611.676,215.109h-86.621v-133.3h85.742v19.824h-61.719v36.132h49.609v19.336h-49.609v37.305h62.598V215.109z"/>
			<path d="M725.055,95.383h-38.548L666.39,215.109h-16.237l20.02-119.726H631.5l2.246-13.574h93.652L725.055,95.383z"/>
			<path d="M724.289,215.109h-15.25l16.602-99.023h15.15l-4.721,25.945c5.276-10.113,10.795-17.439,16.561-21.975
				c5.765-4.535,12.587-6.802,20.469-6.802c0.977,0,2.083,0.034,3.322,0.098l-2.539,15.625l-3.709-0.098
				c-6.054,0-10.983,1.141-14.791,3.418c-3.809,2.28-7.273,5.503-10.397,9.668c-3.125,4.168-6.021,9.344-8.689,15.527
				c-2.669,6.187-5.436,18.003-8.298,35.449L724.289,215.109z"/>
			<path d="M792.259,215.109H776.91l16.602-99.023h15.349L792.259,215.109z M814.02,99.875h-19.824l3.027-18.066h19.824
				L814.02,99.875z"/>
			<path d="M832.393,248.41h-15.248l22.07-131.933h14.158l-3.248,20.417c9.196-15.043,20.285-22.566,33.268-22.566
				c9.131,0,16.795,3.715,22.991,11.144c6.197,7.43,9.296,17.79,9.296,31.083c0,15.576-4.33,29.685-12.991,42.327
				c-8.661,12.641-19.632,18.961-32.916,18.961c-12.569,0-22.37-5.705-29.401-17.115L832.393,248.41z M867.387,205.441
				c10.825,0,18.828-5.426,24.014-16.279c5.183-10.854,7.775-22.603,7.775-35.249c0-8.866-2.056-15.595-6.163-20.19
				s-9.096-6.895-14.964-6.895c-8.347,0-16.01,5.224-22.986,15.67c-6.978,10.445-10.466,22.244-10.466,35.391
				c0,8.303,2.069,14.971,6.21,20.004C854.948,202.926,860.475,205.441,867.387,205.441z"/>
		</g>
	</g>
</g>
</svg>
